# xmcd
# 
# Track frame offsets:
#     150
#     18212
#     35517
#     50132
#     66967
#     80640
#     104320
#     122490
#     137630
#     150725
#     165780
#     179920
# 
# Disc length: 2530
# 
# Revision: 1
# Processed by: cddbd v1.5.2PL0 Copyright (c) Steve Scherf et al.
# Submitted via: fre:ac v1.1beta1pre5
# 
DISCID=9d09e00c
DTITLE=Bayside - Shudder
DYEAR=2008
DGENRE=Punk Rock
TTITLE0=Boy
TTITLE1=The Ghost of Saint Valentine
TTITLE2=No One Understands
TTITLE3=What and What Not
TTITLE4=A Call to Arms
TTITLE5=I Can't Go On
TTITLE6=Demons
TTITLE7=Have Fun Storming the Castle
TTITLE8=Howard
TTITLE9=Roshambo (Rock, Paper, Scissors)
TTITLE10=I Think I'll Be Ok
TTITLE11=Monceanu
EXTD=
EXTT0=
EXTT1=
EXTT2=
EXTT3=
EXTT4=
EXTT5=
EXTT6=
EXTT7=
EXTT8=
EXTT9=
EXTT10=
EXTT11=
PLAYORDER=
